<svg viewBox="0 0 42 42" fill="none" xmlns="http://www.w3.org/2000/svg">
  <rect width="42" height="42" rx="21" fill="#0f1a33"/>
  <g transform="translate(9 8.881)">
    <path d="M 14.7 1.35 C 15.75 -0.08 17.82 -0.43 19.32 0.57 C 20.82 1.58 21.19 3.55 20.14 4.98 L 11.81 16.34 C 10.76 17.77 8.69 18.12 7.19 17.12 C 5.69 16.12 5.33 14.15 6.38 12.71 Z M 0 8.63 L 0 8.31 C 0 6.56 1.48 5.15 3.31 5.15 C 5.14 5.15 6.63 6.56 6.63 8.31 L 6.63 8.63 C 6.63 10.38 5.14 11.79 3.31 11.79 C 1.48 11.79 0 10.37 0 8.63 Z" fill="#3b82f6"/>
  </g>
</svg>
