<svg viewBox="0 0 187 38" fill="none" xmlns="http://www.w3.org/2000/svg">
  <g transform="translate(0 0.881)">
    <path d="M 30.673 2.811 C 32.862 -0.171 37.172 -0.895 40.299 1.193 C 43.426 3.28 44.185 7.39 41.996 10.372 L 24.622 34.032 C 22.433 37.014 18.123 37.739 14.996 35.651 C 11.869 33.563 11.109 29.453 13.299 26.471 Z M 0 17.983 L 0 17.323 C 0 13.683 3.094 10.732 6.912 10.732 C 10.729 10.732 13.824 13.683 13.824 17.323 L 13.824 17.983 C 13.824 21.623 10.729 24.574 6.912 24.574 C 3.094 24.574 0 21.622 0 17.983 Z" fill="#001aff"/>
  </g>
  <g transform="translate(58.978 0)">
    <path d="M 11.591 38 C 4.203 38 0.34 35.094 0 29.284 L 4.814 29.284 C 4.849 32.58 7.09 34.228 11.54 34.228 C 13.527 34.228 15.038 33.82 16.074 33.005 C 17.127 32.172 17.653 31.136 17.653 29.895 C 17.653 28.672 17.144 27.814 16.125 27.321 C 15.106 26.812 13 26.157 9.807 25.359 C 6.631 24.56 4.305 23.668 2.827 22.682 C 1.367 21.697 0.637 19.964 0.637 17.483 C 0.637 15.241 1.545 13.389 3.363 11.927 C 5.197 10.449 7.642 9.71 10.699 9.71 C 17.781 9.71 21.398 12.233 21.551 17.28 L 16.762 17.28 C 16.592 14.732 14.681 13.457 11.03 13.457 C 9.417 13.457 8.075 13.762 7.005 14.374 C 5.952 14.986 5.426 15.878 5.426 17.05 C 5.426 18.103 5.833 18.868 6.648 19.344 C 7.463 19.803 9.502 20.431 12.762 21.23 C 16.04 22.011 18.469 22.929 20.048 23.982 C 21.644 25.036 22.443 26.854 22.443 29.437 C 22.443 31.9 21.457 33.948 19.487 35.579 C 17.534 37.193 14.902 38 11.591 38 Z M 38.454 38 C 34.615 38 31.542 36.768 29.232 34.305 C 26.939 31.824 25.793 28.341 25.793 23.855 C 25.793 19.352 26.939 15.869 29.232 13.406 C 31.542 10.942 34.615 9.71 38.454 9.71 C 41.408 9.71 43.871 10.458 45.841 11.953 C 47.828 13.448 49 15.606 49.357 18.426 L 44.414 18.426 C 44.347 16.812 43.735 15.581 42.58 14.731 C 41.442 13.881 40.067 13.457 38.454 13.457 C 36.161 13.457 34.301 14.332 32.874 16.081 C 31.448 17.815 30.735 20.406 30.735 23.855 C 30.735 27.287 31.448 29.879 32.874 31.629 C 34.301 33.362 36.161 34.228 38.454 34.228 C 40.067 34.228 41.442 33.803 42.58 32.954 C 43.735 32.104 44.347 30.881 44.414 29.284 L 49.357 29.284 C 49 32.104 47.828 34.262 45.841 35.757 C 43.871 37.253 41.408 38 38.454 38 Z M 70.182 30.252 L 70.182 24.263 L 66.896 24.263 C 59.933 24.263 56.452 26.157 56.452 29.946 C 56.452 31.323 56.961 32.385 57.98 33.132 C 58.998 33.863 60.375 34.228 62.106 34.228 C 63.686 34.228 65.214 33.871 66.692 33.157 C 68.17 32.444 69.333 31.475 70.182 30.252 Z M 70.182 34.585 C 67.737 36.862 64.586 38 60.731 38 C 58.048 38 55.84 37.278 54.108 35.834 C 52.375 34.373 51.509 32.495 51.509 30.201 C 51.509 23.881 56.952 20.72 67.838 20.72 L 70.182 20.72 C 70.182 18.783 70.08 17.382 69.876 16.515 C 69.673 15.632 69.103 14.901 68.17 14.323 C 67.235 13.746 65.75 13.457 63.711 13.457 C 59.432 13.457 57.224 14.986 57.088 18.044 L 52.299 18.044 C 52.656 12.488 56.545 9.71 63.966 9.71 C 67.431 9.71 70.131 10.399 72.067 11.775 C 74.003 13.151 74.971 15.852 74.971 19.88 L 74.971 37.363 L 70.182 37.363 L 70.182 34.585 Z M 86.397 37.363 L 81.582 37.363 L 81.582 10.322 L 86.397 10.322 Z M 86.397 5.199 L 81.582 5.199 L 81.582 0 L 86.397 0 Z M 97.797 37.363 L 92.982 37.363 L 92.982 0 L 97.797 0 Z M 115.871 38 C 111.897 38 108.704 36.76 106.293 34.279 C 103.882 31.781 102.676 28.307 102.676 23.855 C 102.676 19.437 103.839 15.98 106.166 13.482 C 108.509 10.968 111.566 9.71 115.336 9.71 C 119.191 9.71 122.265 10.942 124.558 13.406 C 126.867 15.869 128.022 19.353 128.022 23.855 L 128.022 25.002 L 107.669 25.002 C 107.872 28.128 108.73 30.448 110.241 31.96 C 111.77 33.472 113.646 34.228 115.871 34.228 C 117.552 34.228 119.064 33.803 120.405 32.954 C 121.764 32.087 122.478 30.864 122.545 29.284 L 127.513 29.284 C 127.139 32.07 125.874 34.219 123.717 35.732 C 121.577 37.244 118.962 38 115.871 38 Z M 122.953 21.23 C 122.562 18.631 121.688 16.686 120.329 15.394 C 118.971 14.102 117.306 13.456 115.336 13.456 C 113.417 13.456 111.77 14.102 110.394 15.394 C 109.019 16.668 108.144 18.614 107.771 21.23 Z" fill="#191919"/>
  </g>
</svg>
