<svg viewBox="0 0 42 38" fill="none" xmlns="http://www.w3.org/2000/svg">
  <g transform="translate(0 0.881)">
    <path d="M 30.673 2.811 C 32.862 -0.171 37.172 -0.895 40.299 1.193 C 43.426 3.28 44.185 7.39 41.996 10.372 L 24.622 34.032 C 22.433 37.014 18.123 37.739 14.996 35.651 C 11.869 33.563 11.109 29.453 13.299 26.471 Z M 0 17.983 L 0 17.323 C 0 13.683 3.094 10.732 6.912 10.732 C 10.729 10.732 13.824 13.683 13.824 17.323 L 13.824 17.983 C 13.824 21.623 10.729 24.574 6.912 24.574 C 3.094 24.574 0 21.622 0 17.983 Z" fill="#001aff"/>
  </g>
</svg>
